<?xml version="1.0" encoding="UTF-8" standalone="no"?> <svg height="512" viewBox="0 0 512 512" width="512" xmlns="http://www.w3.org/2000/svg"><g id="Flat"><g><path d="m400 152h-16v-40a72 72 0 0 0 -144 0v40h-16v-40a88 88 0 0 1 176 0z" fill="#fa5d3f"/><path d="m471.009 477.1a10 10 0 0 1 -9.959 10.9h-85.05v-352h64z" fill="#fa7d29"/><path d="m408 488h-357.05a10 10 0 0 1 -9.959-10.9l31.009-341.1h304z" fill="#fa5d3f"/><path d="m45.818 424h356.364l-14.546-160h-327.272z" fill="#fac850"/><g><path d="m312 176h-16v-64a72 72 0 0 0 -144 0v64h-16v-64a88 88 0 0 1 176 0z" fill="#fa7d29"/><g fill="#fac850"><circle cx="144" cy="192" r="24"/><circle cx="304" cy="192" r="24"/></g></g><g fill="#fffffe"><path d="m88 322v12a18.021 18.021 0 0 0 18 18h20a2 2 0 0 1 2 2v12a2 2 0 0 1 -2 2h-38v16h38a18.021 18.021 0 0 0 18-18v-12a18.021 18.021 0 0 0 -18-18h-20a2 2 0 0 1 -2-2v-12a2 2 0 0 1 2-2h38v-16h-38a18.021 18.021 0 0 0 -18 18z"/><path d="m207.761 310.06a8 8 0 0 0 -7.761-6.06h-16a8 8 0 0 0 -7.761 6.06l-16 64a7.977 7.977 0 0 0 -.239 1.94v8h16v-7.015l4.246-16.985h23.508l4.246 16.985v7.015h16v-8a7.977 7.977 0 0 0 -.239-1.94zm-23.515 33.94 6-24h3.508l6 24z"/><path d="m256 304h-16v72a8 8 0 0 0 8 8h40v-16h-32z"/><path d="m360 320v-16h-48a8 8 0 0 0 -8 8v64a8 8 0 0 0 8 8h48v-16h-40v-16h32v-16h-32v-16z"/></g></g></g></svg>